<!DOCTYPE svg PUBLIC "-//W3C//DTD SVG 1.1//EN" "http://www.w3.org/Graphics/SVG/1.1/DTD/svg11.dtd">
<!-- Uploaded to: SVG Repo, www.svgrepo.com, Transformed by: SVG Repo Mixer Tools -->
<svg width="218px" height="218px" viewBox="-2.4 -2.4 28.80 28.80" fill="none" xmlns="http://www.w3.org/2000/svg" transform="rotate(270)" stroke="#000000">
<g id="SVGRepo_bgCarrier" stroke-width="0" transform="translate(3.84,3.84), scale(0.68)">
<rect x="-2.4" y="-2.4" width="28.80" height="28.80" rx="6.336" fill="#4285F4" strokewidth="0"/>
</g>
<g id="SVGRepo_tracerCarrier" stroke-linecap="round" stroke-linejoin="round" stroke="#000000" stroke-width="4.08"> <path d="M8 6V18" stroke="#ffffff" stroke-width="2.4" stroke-linecap="round" stroke-linejoin="round"/> <path d="M8 6L5 9" stroke="#ffffff" stroke-width="2.4" stroke-linecap="round" stroke-linejoin="round"/> <path d="M12 12C12 7.5 12.5833 6 15.5 6C18.4167 6 19 7.5 19 12C19 16.5 18.4167 18 15.5 18C12.5833 18 12 16.5 12 12Z" stroke="#ffffff" stroke-width="2.4" stroke-linecap="round" stroke-linejoin="round"/> <path d="M13 7L18 17" stroke="#ffffff" stroke-width="2.4" stroke-linecap="round" stroke-linejoin="round"/> </g>
<g id="SVGRepo_iconCarrier"> <path d="M8 6V18" stroke="#ffffff" stroke-width="2.4" stroke-linecap="round" stroke-linejoin="round"/> <path d="M8 6L5 9" stroke="#ffffff" stroke-width="2.4" stroke-linecap="round" stroke-linejoin="round"/> <path d="M12 12C12 7.5 12.5833 6 15.5 6C18.4167 6 19 7.5 19 12C19 16.5 18.4167 18 15.5 18C12.5833 18 12 16.5 12 12Z" stroke="#ffffff" stroke-width="2.4" stroke-linecap="round" stroke-linejoin="round"/> <path d="M13 7L18 17" stroke="#ffffff" stroke-width="2.4" stroke-linecap="round" stroke-linejoin="round"/> </g>
</svg>